PathFileType	3	(X/Y/Z)	C:\Users\koon_\Desktop\
DataRate	CameraRate	NumFrames	NumMarkers	Units	OrigDataRate	OrigDataStartFrame	OrigNumFrames
100.0	100.0	12	27	mm	100.0	474	3786	
Frame#	Time	get:LFHD			get:RFHD			get:LBHD			get:RBHD			get:C7			get:T10			get:CLAV			get:STRN			get:RBAK			get:LSHO			get:LUPA			get:LELB			get:LFRA			get:LWRA			get:LWRB			get:LFIN			get:RSHO			get:RUPA			get:RELB			get:RFRA			get:RWRA			get:RWRB			get:RFIN			get:LASI			get:RASI			get:LPSI			get:RPSI			
		X1	Y1	Z1	X2	Y2	Z2	X3	Y3	Z3	X4	Y4	Z4	X5	Y5	Z5	X6	Y6	Z6	X7	Y7	Z7	X8	Y8	Z8	X9	Y9	Z9	X10	Y10	Z10	X11	Y11	Z11	X12	Y12	Z12	X13	Y13	Z13	X14	Y14	Z14	X15	Y15	Z15	X16	Y16	Z16	X17	Y17	Z17	X18	Y18	Z18	X19	Y19	Z19	X20	Y20	Z20	X21	Y21	Z21	X22	Y22	Z22	X23	Y23	Z23	X24	Y24	Z24	X25	Y25	Z25	X26	Y26	Z26	X27	Y27	Z27	
474	4.73	101.97629	1574.7515	-74.67556	-54.25246	1560.2738	-71.096954	93.564339	1572.3029	-199.32748	-32.555401	1571.6246	-215.55101	45.0112	1375.4857	-238.67578	24.978609	1123.9672	-267.65866	40.818581	1310.5591	-57.156658	40.1478	1122.1561	-10.312382	-46.147125	1313.0598	-267.06	203.74744	1358.7876	-149.6329	256.28888	1211.9592	-137.68883	278.5141	1031.0491	-159.80348	249.5593	943.87122	-72.712067	228.19127	852.29169	-51.735935	289.50671	843.07758	-82.938934	278.45859	771.36584	-27.126461	-78.826881	1394.0659	-174.59903	-260.90594	1414.8461	-151.40508	-336.08002	1433.3644	-77.804405	-253.36418	1420.0791	-125.35216	-129.40869	1444.3718	-188.07402	-170.35181	1501.5414	-204.37271	-110.8364	1476.5016	-267.41876	159.90012	928.33679	-71.396065	-117.66592	914.77948	-73.379684	75.241928	959.73163	-273.46402	-33.871078	950.6026	-274.15558
475	4.74	101.98916	1574.7512	-74.845467	-54.246868	1560.4452	-71.236847	93.605621	1572.1869	-199.50279	-32.495457	1571.6179	-215.72078	44.864769	1375.475	-238.75354	24.959354	1123.974	-267.7561	40.763866	1310.5065	-57.171032	40.164051	1122.0925	-10.488563	-46.279411	1312.986	-266.96078	203.64433	1358.8481	-149.71103	256.28989	1212.0607	-137.9109	278.74692	1031.2054	-160.0883	249.96858	943.92627	-73.005661	228.71628	852.34375	-52.139351	290.03656	843.22559	-83.331558	279.17264	771.51611	-27.542025	-78.96946	1394.0054	-174.55347	-259.25659	1416.9164	-150.32887	-336.07925	1433.2384	-77.391197	-253.5896	1420.5021	-124.65942	-129.67647	1447.6797	-187.87671	-171.06786	1504.7117	-203.11531	-111.62478	1481.0446	-266.8251	160.00951	928.33966	-71.439766	-117.59235	914.77032	-73.398857	75.294579	959.7171	-273.53571	-33.833	950.58026	-274.19562
476	4.75	101.97066	1574.7765	-75.006172	-54.242378	1560.569	-71.456512	93.600327	1572.0884	-199.70973	-32.538212	1571.6024	-215.99719	44.706429	1375.4335	-238.65668	24.913336	1123.9834	-267.79684	40.690971	1310.4465	-57.24979	40.153973	1122.0461	-10.574258	-46.339863	1313.0348	-267.11731	203.52379	1358.8927	-149.7805	256.26019	1212.1473	-138.0585	278.95834	1031.3881	-160.37247	250.34616	943.97131	-73.399948	229.26242	852.3642	-52.509819	290.59647	843.33026	-83.832031	280.05304	771.81897	-28.030226	-79.0952	1393.9451	-174.57375	-257.25491	1419.0405	-148.67436	-335.97977	1433.2747	-76.948799	-243.57869	1421.8572	-124.7728	-129.94875	1451.3235	-187.68584	-171.73567	1508.2073	-201.97833	-112.59658	1486.408	-266.26929	160.14557	928.38477	-71.503242	-117.45116	914.74652	-73.391983	75.358345	959.68457	-273.5545	-33.960423	950.2796	-273.18353
477	4.76	101.97912	1574.8324	-75.211311	-54.22644	1560.7351	-71.595322	93.573273	1571.9503	-199.91383	-32.511662	1571.5903	-216.24083	44.582779	1375.4969	-238.77681	24.893696	1123.9243	-267.74738	40.647854	1310.4288	-57.261253	40.147259	1121.9762	-10.743015	-46.409618	1312.9606	-267.11026	203.40804	1358.9464	-149.87494	256.23737	1212.2401	-138.24675	279.14447	1031.543	-160.66319	250.75531	943.97565	-73.784271	229.85648	852.29187	-53.031178	291.11871	843.42883	-84.424019	280.78033	771.86371	-28.717632	-79.186577	1393.8871	-174.57156	-254.94585	1421.1501	-146.45528	-336.11859	1433.4301	-76.299484	-251.78188	1421.03	-116.57893	-130.12282	1455.2836	-187.33736	-172.51517	1511.9259	-200.57971	-113.63834	1491.6788	-264.67947	160.23586	928.38593	-71.572548	-117.36222	914.73694	-73.407166	75.4328	959.66864	-273.60376	-33.879555	950.24182	-273.22589
478	4.77	101.94493	1574.8715	-75.464088	-54.26535	1560.8644	-71.770813	93.550522	1571.8634	-200.1412	-32.587746	1571.5093	-216.37628	44.482822	1375.4694	-238.7663	24.847145	1123.9248	-267.76941	40.560272	1310.3988	-57.337917	40.182182	1121.9674	-10.812837	-46.513565	1312.9347	-267.16638	203.31549	1358.9969	-149.9558	256.22513	1212.3176	-138.40289	279.3353	1031.7164	-161.02249	251.17958	943.92993	-74.277779	230.45772	852.20313	-53.623692	291.69101	843.48419	-85.132698	281.60123	771.79315	-29.550508	-79.321442	1393.84	-174.60063	-252.3821	1423.1813	-143.70686	-335.3808	1433.7603	-76.040253	-251.26573	1424.0934	-124.31172	-130.34569	1459.6338	-186.95892	-173.22482	1515.9799	-198.90239	-114.7723	1497.5747	-263.73462	160.3429	928.38702	-71.639313	-117.28545	914.72595	-73.430656	75.473381	959.65454	-273.63089	-33.822983	950.2229	-273.28958
479	4.78	101.94035	1574.9071	-75.67511	-54.319267	1560.9991	-71.965271	93.490334	1571.7504	-200.38927	-32.72982	1571.3623	-216.46515	44.341511	1375.5093	-238.87605	24.841902	1123.9843	-267.96539	40.479359	1310.348	-57.429585	40.194515	1121.8989	-10.979909	-46.587521	1312.9207	-267.2865	203.20325	1359.0479	-150.02713	256.21811	1212.4149	-138.53891	279.30481	1031.7928	-161.13148	251.61156	943.88806	-74.768196	231.07983	852.05103	-54.344357	292.26767	843.53564	-85.965515	282.28873	771.52631	-30.402826	-79.412285	1393.7145	-174.59123	-249.62402	1425.0781	-140.4882	-334.91278	1434.2076	-75.508965	-251.0193	1423.2772	-115.16903	-130.63861	1464.3741	-186.42972	-173.89796	1520.4885	-197.05429	-116.01401	1503.7494	-262.20691	160.47057	928.39233	-71.701141	-117.21801	914.68939	-73.444008	75.580002	959.62396	-273.69705	-33.613956	950.4234	-274.11801
480	4.79	101.91988	1574.9596	-75.984306	-54.353104	1561.1224	-72.162308	93.413445	1571.6458	-200.67761	-32.883556	1571.2764	-216.47284	44.215538	1375.5236	-238.97266	24.772409	1123.9091	-267.88995	40.369438	1310.3157	-57.514946	40.173878	1121.8599	-11.075093	-46.685509	1312.8221	-267.2674	203.06781	1359.0842	-150.09534	256.17261	1212.5117	-138.67564	279.70697	1032.0219	-161.79167	252.05096	943.80664	-75.324219	231.73709	851.85272	-55.111622	292.91177	843.56866	-86.730064	283.1879	771.55231	-31.433899	-79.511246	1393.6281	-174.61261	-246.73895	1426.7949	-136.88446	-334.37115	1434.7352	-75.106369	-241.60423	1426.3525	-122.48392	-130.9545	1469.5151	-185.63989	-174.57971	1525.5134	-194.92619	-117.35597	1510.8508	-261.28522	160.55737	928.38934	-71.706734	-117.14146	914.67786	-73.467102	75.653992	959.63141	-273.72443	-33.661556	950.1969	-273.35989
481	4.8	101.89259	1574.9973	-76.2817	-54.384041	1561.2518	-72.389923	93.280342	1571.5287	-200.9362	-33.244614	1570.8204	-215.81052	44.088448	1375.4835	-238.98846	24.806141	1123.9403	-268.02151	40.245571	1310.2798	-57.527382	40.200455	1121.7971	-11.180893	-46.823864	1312.7981	-267.44034	202.90349	1359.118	-150.13843	256.15295	1212.5929	-138.83768	279.90262	1032.1823	-162.22838	252.51811	943.64459	-75.901764	232.32339	851.57587	-55.991684	293.52109	843.52783	-87.705887	284.04269	771.38318	-32.592773	-79.563019	1393.5177	-174.66202	-243.80089	1428.2972	-133.00903	-333.81253	1435.2675	-74.518784	-240.63376	1427.761	-121.84718	-131.44444	1475.1675	-184.98846	-175.12381	1531.1781	-192.6102	-118.60684	1518.3545	-259.56198	160.60191	928.39771	-71.81945	-117.04177	914.66833	-73.510063	75.731392	959.63062	-273.77054	-33.600838	950.15131	-273.25821
482	4.81	101.8586	1575.0306	-76.671127	-54.46109	1561.3629	-72.572083	93.131348	1571.4349	-201.27522	-33.38142	1570.8099	-216.09712	43.990273	1375.4756	-239.05777	24.777704	1123.8462	-267.93063	40.109116	1310.208	-57.636909	40.163349	1121.7449	-11.313336	-46.881096	1312.7059	-267.51428	202.75954	1359.1854	-150.22786	256.0827	1212.649	-138.9617	280.06638	1032.3359	-162.56094	253.0118	943.3877	-77.037727	232.93127	851.30768	-56.889374	294.07571	843.47607	-88.792297	284.83954	771.13629	-33.824245	-79.581329	1393.4482	-174.69554	-240.89018	1429.5671	-129.00575	-333.0528	1435.8485	-73.894089	-239.58556	1429.2349	-121.01649	-131.63924	1481.1354	-183.71672	-175.89906	1536.8068	-189.60005	-119.77297	1525.8636	-256.39459	160.66685	928.06317	-72.571938	-116.96357	914.66321	-73.523598	75.809303	959.60577	-273.7243	-33.512989	950.16821	-273.29434
483	4.82	101.78298	1575.0497	-77.043556	-54.602989	1561.719	-72.237	92.963387	1571.3441	-201.61885	-33.600479	1570.7231	-216.27452	43.866863	1375.4659	-239.21393	24.768213	1123.8169	-268.00656	39.986782	1310.181	-57.694832	40.105133	1121.7	-11.428626	-46.944279	1312.6167	-267.57901	202.61739	1359.2211	-150.31152	256.03683	1212.7483	-139.11707	280.18881	1032.4962	-162.94823	253.44261	943.177	-77.68412	233.57893	851.03027	-57.914642	294.65009	843.41406	-89.828384	285.52167	770.61481	-35.386196	-79.553146	1393.3623	-174.77693	-238.093	1430.6019	-125.05131	-332.33829	1436.5621	-73.48214	-238.50104	1430.8055	-120.41891	-131.81555	1487.4152	-182.05243	-176.8349	1543.3582	-186.61111	-120.79417	1534.7942	-254.17206	160.71538	928.09564	-72.548683	-116.87624	914.68445	-73.552277	75.91922	959.6264	-273.77148	-33.409992	950.21576	-273.43195
484	4.83	101.71283	1575.1106	-77.40155	-55.230858	1562.4606	-70.072456	92.736938	1571.2947	-201.97836	-33.356831	1570.8696	-217.30583	43.788773	1375.4777	-239.31831	24.783543	1123.8424	-268.15771	39.832314	1310.1279	-57.834999	40.081783	1121.672	-11.552396	-46.965134	1312.5803	-267.73618	202.49484	1359.2382	-150.4055	255.95564	1212.7865	-139.21614	280.30789	1032.6487	-163.30812	253.80754	942.98926	-78.214127	234.14738	850.67389	-58.931786	295.20209	843.30328	-91.047501	286.27057	770.28448	-36.820976	-79.553131	1393.3258	-174.87709	-235.50092	1431.4204	-121.35724	-331.396	1437.3457	-72.954208	-235.25461	1432.4121	-119.89743	-131.88402	1493.9805	-180.15599	-176.6349	1548.5291	-182.05759	-121.40787	1543.3689	-250.06845	160.77496	928.09381	-72.566666	-116.82565	914.69165	-73.567291	75.988998	959.63342	-273.77594	-33.336624	950.23608	-273.49451
485	4.84	101.61196	1575.1528	-77.80838	-54.747025	1561.8625	-72.705292	92.556839	1571.2214	-202.35892	-33.88829	1570.748	-216.9758	43.700062	1375.5099	-239.59993	24.785807	1123.8542	-268.31046	39.787338	1310.0969	-57.936317	40.022526	1121.6746	-11.654217	-46.995907	1312.469	-267.75089	202.38551	1359.2592	-150.47493	255.88573	1212.849	-139.31485	280.43561	1032.7961	-163.645	254.15208	942.80322	-78.961594	234.69446	850.31	-59.991444	295.79156	843.22595	-92.200729	287.01547	769.88141	-38.395889	-79.497559	1393.2975	-175.01495	-233.21062	1432.062	-118.17241	-330.51477	1438.2469	-72.480141	-240.90181	1436.1573	-118.82162	-131.82892	1501.1289	-178.18492	-177.60269	1555.2991	-178.67937	-122.81371	1553.353	-247.58961	160.84384	928.11578	-72.581406	-116.75844	914.73187	-73.612427	76.12236	959.60577	-273.79755	-33.22216	950.21588	-273.52313
